<mxfile host="app.diagrams.net" modified="2023-07-13T00:26:38.080Z" agent="Mozilla/5.0 (Windows NT 10.0; Win64; x64) AppleWebKit/537.36 (KHTML, like Gecko) Chrome/114.0.0.0 Safari/537.36" etag="ib-_tkRQ-pCunKXnMqeQ" version="21.6.1" type="device">
  <diagram name="Page-1" id="Qqlblzz5lOhQhTR6p-FZ">
    <mxGraphModel dx="860" dy="622" grid="1" gridSize="10" guides="1" tooltips="1" connect="1" arrows="1" fold="1" page="1" pageScale="1" pageWidth="827" pageHeight="1169" math="0" shadow="0">
      <root>
        <mxCell id="0" />
        <mxCell id="1" parent="0" />
        <mxCell id="C3srwpwdrDgBpbFUtEzZ-17" value="" style="rounded=0;whiteSpace=wrap;html=1;" vertex="1" parent="1">
          <mxGeometry x="30" y="90" width="336" height="390" as="geometry" />
        </mxCell>
        <mxCell id="C3srwpwdrDgBpbFUtEzZ-2" value="" style="strokeWidth=1;html=1;shadow=0;dashed=0;shape=mxgraph.ios.iTextInput;strokeColor=#444444;buttonText=;fontSize=8;whiteSpace=wrap;align=left;" vertex="1" parent="1">
          <mxGeometry x="46" y="180" width="280" height="30" as="geometry" />
        </mxCell>
        <mxCell id="C3srwpwdrDgBpbFUtEzZ-7" value="" style="html=1;shadow=0;dashed=0;shape=mxgraph.bootstrap.rrect;rSize=5;strokeColor=#505050;strokeWidth=1;fillColor=#ffffff;fontColor=#777777;whiteSpace=wrap;align=left;verticalAlign=middle;fontStyle=0;fontSize=12;spacing=15;" vertex="1" parent="1">
          <mxGeometry x="46" y="320" width="280" height="30" as="geometry" />
        </mxCell>
        <mxCell id="C3srwpwdrDgBpbFUtEzZ-8" value="" style="shape=triangle;direction=south;fillColor=#495057;strokeColor=none;perimeter=none;" vertex="1" parent="C3srwpwdrDgBpbFUtEzZ-7">
          <mxGeometry x="1" y="0.5" width="10" height="5" relative="1" as="geometry">
            <mxPoint x="-17" y="-2.5" as="offset" />
          </mxGeometry>
        </mxCell>
        <mxCell id="C3srwpwdrDgBpbFUtEzZ-9" value="Nome" style="text;html=1;strokeColor=none;fillColor=none;align=left;verticalAlign=middle;whiteSpace=wrap;rounded=0;" vertex="1" parent="1">
          <mxGeometry x="46" y="150" width="60" height="30" as="geometry" />
        </mxCell>
        <mxCell id="C3srwpwdrDgBpbFUtEzZ-10" value="" style="strokeWidth=1;html=1;shadow=0;dashed=0;shape=mxgraph.ios.iTextInput;strokeColor=#444444;buttonText=;fontSize=8;whiteSpace=wrap;align=left;" vertex="1" parent="1">
          <mxGeometry x="46" y="250" width="280" height="30" as="geometry" />
        </mxCell>
        <mxCell id="C3srwpwdrDgBpbFUtEzZ-11" value="E-mail" style="text;html=1;strokeColor=none;fillColor=none;align=left;verticalAlign=middle;whiteSpace=wrap;rounded=0;" vertex="1" parent="1">
          <mxGeometry x="46" y="220" width="60" height="30" as="geometry" />
        </mxCell>
        <mxCell id="C3srwpwdrDgBpbFUtEzZ-12" value="Unidade" style="text;html=1;strokeColor=none;fillColor=none;align=left;verticalAlign=middle;whiteSpace=wrap;rounded=0;" vertex="1" parent="1">
          <mxGeometry x="46" y="290" width="60" height="30" as="geometry" />
        </mxCell>
        <mxCell id="C3srwpwdrDgBpbFUtEzZ-13" value="" style="html=1;shadow=0;dashed=0;shape=mxgraph.bootstrap.rrect;rSize=5;strokeColor=#505050;strokeWidth=1;fillColor=#ffffff;fontColor=#777777;whiteSpace=wrap;align=left;verticalAlign=middle;fontStyle=0;fontSize=12;spacing=15;" vertex="1" parent="1">
          <mxGeometry x="46" y="390" width="280" height="30" as="geometry" />
        </mxCell>
        <mxCell id="C3srwpwdrDgBpbFUtEzZ-14" value="" style="shape=triangle;direction=south;fillColor=#495057;strokeColor=none;perimeter=none;" vertex="1" parent="C3srwpwdrDgBpbFUtEzZ-13">
          <mxGeometry x="1" y="0.5" width="10" height="5" relative="1" as="geometry">
            <mxPoint x="-17" y="-2.5" as="offset" />
          </mxGeometry>
        </mxCell>
        <mxCell id="C3srwpwdrDgBpbFUtEzZ-15" value="Equipe" style="text;html=1;strokeColor=none;fillColor=none;align=left;verticalAlign=middle;whiteSpace=wrap;rounded=0;" vertex="1" parent="1">
          <mxGeometry x="46" y="360" width="60" height="30" as="geometry" />
        </mxCell>
        <mxCell id="C3srwpwdrDgBpbFUtEzZ-18" value="Salvar" style="rounded=1;fillColor=#0057D8;strokeColor=none;html=1;whiteSpace=wrap;fontColor=#ffffff;align=center;verticalAlign=middle;fontStyle=0;fontSize=12;sketch=0;" vertex="1" parent="1">
          <mxGeometry x="126" y="440" width="80" height="30" as="geometry" />
        </mxCell>
        <mxCell id="C3srwpwdrDgBpbFUtEzZ-19" value="Cancelar" style="rounded=1;fillColor=#F1F2F4;strokeColor=none;html=1;whiteSpace=wrap;fontColor=#596780;align=center;verticalAlign=middle;fontStyle=0;fontSize=12;sketch=0;" vertex="1" parent="1">
          <mxGeometry x="46" y="440" width="70" height="30" as="geometry" />
        </mxCell>
        <mxCell id="C3srwpwdrDgBpbFUtEzZ-20" value="Cadastrar Colaboradores" style="text;html=1;strokeColor=none;fillColor=none;align=left;verticalAlign=middle;whiteSpace=wrap;rounded=0;fontStyle=1;fontSize=14;" vertex="1" parent="1">
          <mxGeometry x="46" y="100" width="210" height="30" as="geometry" />
        </mxCell>
        <mxCell id="C3srwpwdrDgBpbFUtEzZ-21" value="Novo Colaborador" style="text;html=1;strokeColor=none;fillColor=none;align=left;verticalAlign=middle;whiteSpace=wrap;rounded=0;" vertex="1" parent="1">
          <mxGeometry x="46" y="120" width="110" height="30" as="geometry" />
        </mxCell>
        <mxCell id="C3srwpwdrDgBpbFUtEzZ-22" value="&lt;blockquote style=&quot;margin: 0 0 0 40px; border: none; padding: 0px;&quot;&gt;&lt;/blockquote&gt;&lt;blockquote style=&quot;margin: 0 0 0 40px; border: none; padding: 0px;&quot;&gt;&lt;/blockquote&gt;&lt;ul&gt;&lt;li&gt;&lt;span style=&quot;background-color: initial; font-size: 12px;&quot;&gt;Nome&lt;/span&gt;&lt;/li&gt;&lt;ul&gt;&lt;li&gt;&lt;span style=&quot;background-color: initial; font-size: 12px;&quot;&gt;Obrigatório&lt;/span&gt;&lt;/li&gt;&lt;li&gt;&lt;span style=&quot;background-color: initial; font-size: 12px;&quot;&gt;Máximo 50 caracteres&lt;/span&gt;&lt;/li&gt;&lt;/ul&gt;&lt;li&gt;&lt;font style=&quot;font-size: 12px;&quot;&gt;- E-mail&amp;nbsp;&lt;/font&gt;&lt;/li&gt;&lt;ul&gt;&lt;li&gt;&lt;font style=&quot;font-size: 12px;&quot;&gt;Obrigatório&lt;/font&gt;&lt;/li&gt;&lt;li&gt;&lt;font style=&quot;font-size: 12px;&quot;&gt;Máximo 50 caracteres&lt;/font&gt;&lt;/li&gt;&lt;li&gt;&lt;font style=&quot;font-size: 12px;&quot;&gt;Deve ser um e-mail válido.&amp;nbsp;&lt;/font&gt;&lt;/li&gt;&lt;li&gt;&lt;font style=&quot;font-size: 12px;&quot;&gt;Dica: Usar Regex para validar.&lt;/font&gt;&lt;/li&gt;&lt;/ul&gt;&lt;li&gt;&lt;font style=&quot;font-size: 12px;&quot;&gt;- Unidade&lt;/font&gt;&lt;/li&gt;&lt;ul&gt;&lt;li&gt;&lt;font style=&quot;font-size: 12px;&quot;&gt;Obrigatório&lt;/font&gt;&lt;/li&gt;&lt;/ul&gt;&lt;li&gt;&lt;font style=&quot;font-size: 12px;&quot;&gt;- Equipe&lt;/font&gt;&lt;/li&gt;&lt;ul&gt;&lt;li&gt;&lt;font style=&quot;font-size: 12px;&quot;&gt;Opcional&lt;/font&gt;&lt;/li&gt;&lt;/ul&gt;&lt;/ul&gt;" style="strokeWidth=1;shadow=0;dashed=0;align=left;html=1;shape=mxgraph.mockup.text.stickyNote2;fontColor=#666666;mainText=;fontSize=17;whiteSpace=wrap;fillColor=#ffffcc;strokeColor=#F62E00;" vertex="1" parent="1">
          <mxGeometry x="390" y="90" width="300" height="350" as="geometry" />
        </mxCell>
      </root>
    </mxGraphModel>
  </diagram>
</mxfile>
